<svg viewBox="0 0 1024 1024" xmlns="http://www.w3.org/2000/svg" width="32" height="32">
  <path
    d="M714.372 455.04c3.776 0 6.976 2.56 8.128 6.208l.384 2.944v525.184a9.152 9.152 0 01-5.76 8.704l-2.752.448H305.284a8.64 8.64 0 01-8.064-6.272l-.448-2.88V464.192c0-4.096 2.432-7.488 5.824-8.704l2.688-.512h409.088zm-59.648 327.552H364.932V925.12h289.792V782.592zm-200.256 26.496c21.248 0 38.4 16.448 38.4 36.672a37.568 37.568 0 01-38.4 36.736 37.568 37.568 0 01-38.4-36.736c0-20.224 17.216-36.672 38.4-36.672zm57.728-743.936a365.824 365.824 0 01336 222.72l5.888 14.656a229.696 229.696 0 01169.92 223.552 230.4 230.4 0 01-209.408 227.392 9.28 9.28 0 01-9.472-6.08l-.512-3.072v-69.376a8.96 8.96 0 017.872-9.024 142.208 142.208 0 00124.16-131.456 142.464 142.464 0 00-94.592-144.384l-10.24-3.136-43.072-11.456-15.808-41.984a275.52 275.52 0 00-40.832-72.832 278.208 278.208 0 00-219.84-108.16 275.904 275.904 0 00-160 50.688 282.112 282.112 0 00-94.208 114.624l-6.4 15.552-15.936 42.112-43.328 11.52a142.784 142.784 0 00-62.976 239.36c22.4 21.952 51.328 35.84 82.304 39.616a9.152 9.152 0 017.68 6.4l.384 2.624v69.312a9.216 9.216 0 01-9.92 9.152A230.4 230.4 0 01-.06 525.888a229.696 229.696 0 01170.304-223.424A365.76 365.76 0 01512.196 65.152zm142.528 463.296H364.932V695.68h289.792V528.448zm-200.256 27.328c21.248 0 38.4 16.448 38.4 36.736a37.568 37.568 0 01-38.4 36.672 37.568 37.568 0 01-38.4-36.672c0-20.288 17.216-36.736 38.4-36.736z"
    fill="currentColor" />
</svg>