<svg viewBox="0 0 1024 1024" xmlns="http://www.w3.org/2000/svg" width="32" height="32">
  <path
    d="M921.728 831.104l6.72 5.504 69.76 65.408a44.8 44.8 0 01-55.488 69.952l-5.76-4.48-55.68-52.288-70.208 75.904-2.048 2.048a70.4 70.4 0 01-93.568 2.88l-5.952-5.632-66.88-70.592-69.76 73.728a70.4 70.4 0 01-93.568 2.88l-6.016-5.696-67.008-70.848-69.76 73.728a70.4 70.4 0 01-93.568 2.88l-5.952-5.632-68.928-72.832L112 970.88a44.8 44.8 0 01-57.92 2.944l-5.376-4.864a44.8 44.8 0 01-3.008-57.92l4.928-5.44 70.016-65.92a70.4 70.4 0 0193.44-2.752l5.952 5.632 68.032 71.936 67.072-70.912a70.4 70.4 0 0193.248-8.128l6.272 5.312 2.816 2.816 66.944 70.784 67.072-70.848a70.4 70.4 0 0193.248-8.128l6.272 5.312 2.816 2.752 66.56 70.4 68.224-73.6a70.4 70.4 0 0193.12-9.152zm0-228.928l6.72 5.504 69.76 65.408a44.8 44.8 0 01-55.488 69.888l-5.76-4.48-55.68-52.288-70.208 75.904-2.048 2.112a70.4 70.4 0 01-93.568 2.88l-5.952-5.632-66.88-70.656-69.76 73.792a70.4 70.4 0 01-93.568 2.816l-6.016-5.632-67.008-70.912-69.76 73.792a70.4 70.4 0 01-93.568 2.88l-5.952-5.696-68.928-72.832L112 741.888a44.8 44.8 0 01-57.92 3.008l-5.376-4.928a44.8 44.8 0 01-3.008-57.92l4.928-5.376 70.016-65.92A70.4 70.4 0 01214.08 608l5.952 5.632 68.032 71.872 67.136-70.912a70.4 70.4 0 0193.248-8.064l6.272 5.248 2.816 2.816 66.944 70.784 67.072-70.848a70.4 70.4 0 0193.248-8.064l6.272 5.248 2.816 2.816 66.56 70.4 68.224-73.664a70.4 70.4 0 0193.12-9.088zM967.68 211.2v89.6H392a19.2 19.2 0 00-18.688 14.784L372.8 320v192h-89.6V320a108.8 108.8 0 0199.392-108.416L392 211.2h575.616zm0-192v89.6H250.624a83.2 83.2 0 00-82.752 74.688l-.448 8.512v320h-89.6V192a172.8 172.8 0 01161.92-172.48l10.88-.32H967.68z"
    fill="currentColor" />
</svg>