<svg viewBox="0 0 1024 1024" xmlns="http://www.w3.org/2000/svg" width="32" height="32">
  <path
    d="M262.272 640c52.864 0 116.032 20.672 188.096 61.184 31.36 17.6 61.568 37.312 90.56 59.072 65.792 50.688 161.472 100.352 220.8 100.352 63.616 0 135.04-49.536 179.968-95.808a47.232 47.232 0 0168.224 0 50.88 50.88 0 014.48 64.896l-4.672 5.568-2.688 2.752a524.8 524.8 0 01-85.44 67.712C868.032 939.904 813.952 960 761.728 960c-52.864 0-116.032-20.672-188.096-61.184-31.36-17.6-61.568-37.312-90.56-59.072-65.792-50.688-161.472-100.352-220.8-100.352-63.616 0-135.04 49.536-179.968 95.808A47.232 47.232 0 0135.712 848a49.024 49.024 0 01-34.048-35.2 50.752 50.752 0 0112.48-48 505.6 505.6 0 0178.336-64c56.576-38.016 114.112-60.8 169.792-60.8zm0-256c52.864 0 116.032 20.672 188.096 61.184 31.36 17.6 61.568 37.312 90.56 59.072 65.792 50.688 161.472 100.352 220.8 100.352 63.616 0 135.04-49.536 179.968-95.808a47.232 47.232 0 0168.224 0 50.816 50.816 0 01-.064 70.4 505.6 505.6 0 01-78.336 64C874.944 681.216 817.408 704 761.728 704c-52.864 0-116.032-20.672-188.096-61.184-31.36-17.6-61.568-37.312-90.56-59.072-65.792-50.688-161.472-100.352-220.8-100.352-63.616 0-135.04 49.536-179.968 95.808A47.232 47.232 0 0135.712 592a49.024 49.024 0 01-34.048-35.2 50.752 50.752 0 0112.48-48 505.6 505.6 0 0178.336-64c56.576-38.016 114.112-60.8 169.792-60.8zM768 320a64 64 0 110 128 64 64 0 010-128zM512 192a64 64 0 110 128 64 64 0 010-128zm448 0a64 64 0 110 128 64 64 0 010-128zm-832-64a64 64 0 110 128 64 64 0 010-128zm576 0a64 64 0 110 128 64 64 0 010-128zM416 0a96 96 0 110 192 96 96 0 010-192zm448 0a96 96 0 110 192 96 96 0 010-192z"
    fill="currentColor" />
</svg>