<svg viewBox="0 0 1024 1024" xmlns="http://www.w3.org/2000/svg" width="32" height="32">
  <path
    d="M720 147.2c51.2 0 92.8 41.6 92.8 92.8v62.4l120.32-90.24a44.8 44.8 0 0171.232 29.44l.448 6.4v552a44.8 44.8 0 01-71.68 35.84L812.8 745.6V784a92.8 92.8 0 01-83.84 92.352l-8.96.448H112c-51.2 0-92.8-41.6-92.8-92.8V240c0-51.2 41.6-92.8 92.8-92.8zm0 89.6H112a3.2 3.2 0 00-3.2 3.2v544c0 1.792 1.408 3.2 3.2 3.2h608a3.2 3.2 0 003.2-3.2V656a44.8 44.8 0 0171.68-35.84L915.2 710.4V337.6l-120.32 90.24a44.8 44.8 0 01-71.232-29.44l-.448-6.4V240a3.2 3.2 0 00-3.2-3.2zm-408 49.6a153.6 153.6 0 110 307.2 153.6 153.6 0 010-307.2zm0 89.6a64 64 0 100 128 64 64 0 000-128z"
    fill="currentColor" />
</svg>