<svg viewBox="0 0 1024 1024" xmlns="http://www.w3.org/2000/svg" width="32" height="32">
  <path
    d="M798.208 485.44l225.792 128v251.584l-225.792 128-222.208-128v-251.52l222.208-128zm-512 0L512 613.44v251.584l-225.792 128L64 865.024v-251.52l222.208-128zm512 103.232L660.8 667.52v165.44l137.408 64.064 140.032-64.64V667.52l-140.032-78.848zm-512 0L148.8 667.52v165.44l137.408 64.064 140.032-64.64V667.52l-140.032-78.848zm256-551.232L768 165.44v251.584l-225.792 128-222.208-128v-251.52l222.208-128zm0 103.232L404.8 219.52v165.44l137.408 64.064 140.032-64.64V219.52l-140.032-78.848z"
    fill="currentColor" />
</svg>