<svg viewBox="0 0 1024 1024" xmlns="http://www.w3.org/2000/svg" width="32" height="32">
  <path
    d="M892.928 64.64h-700.16A128.576 128.576 0 0064.192 195.392V676.8a128.576 128.576 0 00128.576 126.336h700.16a128.576 128.576 0 00128.576-128.576V195.392A128.576 128.576 0 00892.928 64.704zm46.528 609.92a46.464 46.464 0 01-46.528 46.528h-700.16a46.464 46.464 0 01-46.528-46.528V195.392c0-25.6 20.864-46.464 46.528-46.464h700.16c25.664 0 46.528 20.8 46.528 46.464V674.56zm-41.024 210.624H187.264a41.024 41.024 0 000 82.048h711.168a41.024 41.024 0 000-82.048z"
    fill="currentColor" />
  <path
    d="M727.68 304.832l-163.968-95.168a42.112 42.112 0 00-41.024 0l-164.16 95.168a39.936 39.936 0 00-20.8 35.52v188.16a40.512 40.512 0 0020.8 35.584l164.096 94.656a41.024 41.024 0 0041.024 0l164.096-94.656a41.6 41.6 0 0020.224-35.584V339.264a40.448 40.448 0 00-20.224-34.432zm-184.832 60.672a68.352 68.352 0 110 136.768 68.352 68.352 0 010-136.768z"
    fill="currentColor" />
</svg>