<svg viewBox="0 0 1024 1024" xmlns="http://www.w3.org/2000/svg" width="32" height="32">
  <path
    d="M239.68 849.344a56.896 56.896 0 00113.6 0h85.376a142.4 142.4 0 01-142.208 142.208 142.336 142.336 0 01-142.144-142.208h85.376zm450.176 0a56.896 56.896 0 00113.6 0h85.312a142.336 142.336 0 01-142.08 142.208A142.336 142.336 0 01604.48 849.344h85.376zM290.304 64.896l204.352 102.208L642.368 314.88V131.072H932.8v239.232h91.072v436.352H64V721.28h224.128L114.304 547.456 12.096 343.04 290.304 64.832zm352.128 408.576l-248 247.808h247.872V473.472zM847.36 216.32H727.68v504.96h210.944v-265.6h-91.2V216.32zm-540.352-47.616L115.904 359.872l68.48 137.024 156.992 156.928 259.52-259.776L444.032 237.12l-136.96-68.48zm27.2 250.24l88.896 88.96-88.96 88.832-88.832-88.896 88.896-88.896zm33.152-199.04l88.96 88.896-88.96 88.896-88.832-88.96 88.832-88.768z"
    fill="currentColor" />
</svg>