<svg width="16" height="16" viewBox="0 0 16 16" fill="none"
  xmlns="http://www.w3.org/2000/svg">
  <path d="M8.80929243,1.35685521 L8.89901876,1.43431458 L12.8990188,5.43431458 C13.2114382,5.74673401 13.2114382,6.25326599 12.8990188,6.56568542 C12.6150011,6.84970309 12.1705598,6.87552288 11.8573742,6.64314479 L11.7676479,6.56568542 L8.333,3.131 L4.89901876,6.56568542 C4.61500109,6.84970309 4.17055983,6.87552288 3.85737424,6.64314479 L3.76764791,6.56568542 C3.48363024,6.28166776 3.45781045,5.8372265 3.69018854,5.5240409 L3.76764791,5.43431458 L7.76764791,1.43431458 C8.05166558,1.15029691 8.49610684,1.12447712 8.80929243,1.35685521 Z" fill="#00f"></path>
  <path d="M3.85737424,9.35685521 C4.13924127,9.14771493 4.5274254,9.14771493 4.80929243,9.35685521 L4.89901876,9.43431458 L8.333,12.869 L11.7676479,9.43431458 L11.8573742,9.35685521 C12.1705598,9.12447712 12.6150011,9.15029691 12.8990188,9.43431458 C13.1830364,9.71833224 13.2088562,10.1627735 12.9764781,10.4759591 L12.8990188,10.5656854 L8.89901876,14.5656854 L8.80929243,14.6431448 C8.5274254,14.8522851 8.13924127,14.8522851 7.85737424,14.6431448 L7.76764791,14.5656854 L3.76764791,10.5656854 L3.69018854,10.4759591 C3.48104826,10.1940921 3.48104826,9.80590794 3.69018854,9.5240409 L3.76764791,9.43431458 L3.85737424,9.35685521 Z" fill="#f00"></path>
</svg>