<svg width="16" height="16" viewBox="0 0 16 16" fill="none"
  xmlns="http://www.w3.org/2000/svg">
  <path d="M6.89901876,1.40081124 C7.03271176,1.53450424 7.10919379,1.70374358 7.12846485,1.87810672 L7.13333333,2 L7.13333333,14 C7.13333333,14.4418278 6.77516113,14.8 6.33333333,14.8 C5.92549229,14.8 5.58893175,14.4948119 5.53956647,14.1003503 L5.53333333,14 L5.53233333,3.89749667 L2.89901876,6.53218209 C2.58659932,6.84460153 2.08006734,6.84460153 1.76764791,6.53218209 C1.48363024,6.24816442 1.45781045,5.80372316 1.69018854,5.49053757 L1.76764791,5.40081124 L5.76764791,1.40081124 C6.08006734,1.08839181 6.58659932,1.08839181 6.89901876,1.40081124 Z" fill="#00f"></path>
  <path d="M9.94129716,14.7850879 L9.86364754,14.8090706 L9.77457765,14.82628 L9.77457765,14.82628 L9.66666667,14.8335033 L9.59489994,14.830328 L9.59489994,14.830328 L9.48391526,14.812459 L9.48391526,14.812459 L9.37777954,14.7797339 L9.37777954,14.7797339 L9.29508916,14.7422078 L9.29508916,14.7422078 L9.1997213,14.6832257 L9.1997213,14.6832257 L9.10051796,14.5987376 L9.10051796,14.5987376 C9.0596962,14.5579004 9.02386682,14.5132256 8.9934931,14.466057 L8.94184579,14.3725917 L8.94184579,14.3725917 L8.90555839,14.2804536 L8.90555839,14.2804536 L8.87770389,14.1663099 L8.87770389,14.1663099 L8.8709456,14.1163821 L8.86666667,14.0335033 L8.86666667,2.03350333 C8.86666667,1.59167553 9.22483887,1.23350333 9.66666667,1.23350333 C10.0745077,1.23350333 10.4110682,1.53869148 10.4604335,1.93315303 L10.4666667,2.03350333 L10.4666667,12.1015033 L13.1009812,9.46781458 C13.4134007,9.15539514 13.9199327,9.15539514 14.2323521,9.46781458 C14.5163698,9.75183224 14.5421895,10.1962735 14.3098115,10.5094591 L14.2323521,10.5991854 L10.2323521,14.5991854 C10.2036669,14.6273009 10.1802467,14.6476903 10.1556914,14.6666829 L10.2323521,14.5991854 C10.2016079,14.6299296 10.168984,14.6576484 10.1348502,14.6823417 L10.0426405,14.7398224 L10.0426405,14.7398224 L9.94129716,14.7850879 L9.94129716,14.7850879 Z" fill="#f00"></path>
</svg>