<svg width="16" height="16" viewBox="0 0 16 16" fill="none"
  xmlns="http://www.w3.org/2000/svg">
  <path d="M13.5386456,9.42945 C13.7254993,9.42962603 13.8938319,9.53775409 13.965089,9.70338486 C14.0363461,9.86901564 13.9964811,10.0594994 13.8640975,10.1859443 L8.32630386,15.8703774 C8.25847912,15.9351887 8.17494464,15.9756958 8.08748273,15.9918986 L7.99914805,16 C7.88078664,16 7.76242524,15.9567925 7.67199224,15.8703774 L2.13590247,10.1859443 C2.00329809,10.0592896 1.96354041,9.86840857 2.03523501,9.70262874 C2.10692962,9.53684889 2.27589445,9.42896347 2.46305828,9.42945 L13.5386456,9.42945 Z M10.808,11.029 L5.19,11.029 L7.998,13.913 L10.808,11.029 Z" fill="#00f"></path>
            <path d="M8.00085199,0 L8.08918666,0.0081014165 C8.17664857,0.0243042495 8.26018305,0.064811332 8.3280078,0.129622664 L13.8658014,5.82879129 C13.9984059,5.95544602 14.0381635,6.14632705 13.966469,6.3121069 C13.8947743,6.47788674 13.7258096,6.58577218 13.5386456,6.58528397 L2.46305828,6.58528397 C2.27620471,6.58510959 2.10787208,6.47698154 2.03661503,6.31135076 C1.96535797,6.14571999 2.00522293,5.95523627 2.13760641,5.82879129 L7.67369617,0.129622664 C7.74152092,0.064811332 7.8250554,0.0243042495 7.91251731,0.0081014165 L8.00085199,0 Z M8,2.088 L5.186,4.985 L10.815,4.985 L8,2.088 Z" fill="#f00"></path>
</svg>