<svg width="16" height="16" viewBox="0 0 16 16" fill="none"
  xmlns="http://www.w3.org/2000/svg">
  <path d="M13.5386456,9.59003243 C13.7254993,9.59020515 13.8938319,9.6983332 13.965089,9.86396398 C14.0363461,10.0295948 13.9964811,10.2200785 13.8640975,10.3465235 L8.32630386,15.8703774 C8.14543787,16.0432075 7.85285823,16.0432075 7.67199224,15.8703774 L2.13590247,10.3465235 C2.00329809,10.2198687 1.96354041,10.0289877 2.03523501,9.86320786 C2.10692962,9.697428 2.27589445,9.58954258 2.46305828,9.59003243 L13.5386456,9.59003243 Z" fill="#00f"></path>
  <path d="M8.3280078,0.129622664 L13.8658014,5.75650344 C13.9984059,5.88315817 14.0381635,6.07403919 13.966469,6.23981905 C13.8947743,6.40559888 13.7258096,6.51348432 13.5386456,6.51299278 L2.46305828,6.51299278 C2.27620471,6.51282173 2.10787208,6.40469368 2.03661503,6.2390629 C1.96535797,6.07343213 2.00522293,5.88294841 2.13760641,5.75650344 L7.67369617,0.129622664 C7.85456217,-0.0432075547 8.14714181,-0.0432075547 8.3280078,0.129622664 Z" fill="#f00"></path>
</svg>